<?xml version="1.0" encoding="UTF-8" standalone="no"?><!DOCTYPE svg PUBLIC "-//W3C//DTD SVG 1.1//EN" "http://www.w3.org/Graphics/SVG/1.1/DTD/svg11.dtd"><svg width="100%" height="100%" viewBox="0 0 500 500" version="1.1" xmlns="http://www.w3.org/2000/svg" xmlns:xlink="http://www.w3.org/1999/xlink" xml:space="preserve" xmlns:serif="http://www.serif.com/" style="fill-rule:evenodd;clip-rule:evenodd;stroke-linecap:round;stroke-linejoin:round;stroke-miterlimit:1.5;"><rect x="0" y="-0" width="500" height="500" style="fill:#d0011c;"/><g><circle cx="250" cy="252.86" r="159.535" style="fill:#d00100;stroke:#fff;stroke-width:8.33px;"/><g><circle cx="252.314" cy="250.698" r="38.958" style="fill:#d00100;stroke:#fff;stroke-width:8.33px;"/><circle cx="252.314" cy="250.698" r="19.328" style="fill:#fff;"/><path d="M227.948,220.035c-8.027,2.582 -24.661,-51.168 -6.238,-70.701c17.425,-18.474 113.386,10.186 94.358,21.457c-11.211,6.64 -72.26,37.726 -51.847,43.012" style="fill:#fff;stroke:#fff;stroke-width:8.33px;"/><path d="M291.052,244.929c1.778,-8.243 56.643,4.227 64.348,29.948c7.286,24.327 -65.515,93.102 -65.761,70.988c-0.145,-13.029 3.458,-81.442 -11.326,-66.407" style="fill:#fff;stroke:#fff;stroke-width:8.33px;"/><path d="M237.942,287.131c6.249,5.661 -31.983,46.941 -58.111,40.753c-24.711,-5.853 -47.871,-103.288 -28.596,-92.445c11.356,6.389 68.802,43.717 63.173,23.395" style="fill:#fff;stroke:#fff;stroke-width:8.33px;"/></g></g><g><path d="M369.947,285.801c4.735,27.981 -40.394,66.84 -40.394,95.485c-0,22.294 18.1,40.394 40.394,40.394c22.294,0 40.394,-18.1 40.394,-40.394c0,-28.645 -28.557,-79.341 -40.394,-95.485Z" style="fill:#d0011c;stroke:#ecf8fe;stroke-width:8.33px;"/><path d="M342.911,411.289c-1.597,-3.349 -4.658,-15.394 4.169,-24.19c5.469,-5.451 7.77,-20.45 9.396,-20.523c1.644,-0.074 13.471,18.154 13.471,18.154c5.981,-4.511 5.926,-32.205 9.017,-32.437c3.189,-0.238 27.319,39.145 26.484,48.267c2.424,14.068 -43.686,34.203 -62.537,10.729Z" style="fill:#fff;"/></g></svg>