<?xml version="1.0" encoding="UTF-8" standalone="no"?>
<!DOCTYPE svg PUBLIC "-//W3C//DTD SVG 1.1//EN" "http://www.w3.org/Graphics/SVG/1.1/DTD/svg11.dtd">
<svg width="100%" height="100%" viewBox="0 0 70 70" version="1.1" xmlns="http://www.w3.org/2000/svg" xmlns:xlink="http://www.w3.org/1999/xlink" xml:space="preserve" xmlns:serif="http://www.serif.com/" style="fill-rule:evenodd;clip-rule:evenodd;stroke-linejoin:round;stroke-miterlimit:2;">
    <g transform="matrix(1,0,0,1,-388.046,-320)">
        <g transform="matrix(0.424152,0,0,0.403932,-2696.46,-199.204)">
            <rect x="7272.17" y="1285.37" width="163.605" height="172.76" style="fill:rgb(208,1,28);"/>
        </g>
        <g transform="matrix(0.366573,0,0,0.771817,-2165.46,-819.261)">
            <g transform="matrix(0.263275,0,0,0.136018,5264.7,986.122)">
                <path d="M6979.26,3710.85C6979.26,3707.8 6976.57,3705.32 6973.25,3705.32L6922.19,3705.32C6918.88,3705.32 6916.19,3707.8 6916.19,3710.85L6916.19,3761.9C6916.19,3764.95 6918.88,3767.42 6922.19,3767.42L6973.25,3767.42C6976.57,3767.42 6979.26,3764.95 6979.26,3761.9L6979.26,3710.85ZM6967.24,3716.37L6967.24,3756.37C6967.24,3756.37 6928.2,3756.37 6928.2,3756.37C6928.2,3756.37 6928.2,3716.37 6928.2,3716.37L6967.24,3716.37Z" style="fill:white;"/>
            </g>
            <g transform="matrix(1.07913,0,0,0.515411,-465.887,-0.130659)">
                <path d="M6938.86,3006.6L6926.86,3006.6C6926.05,3006.6 6925.39,3007.25 6925.39,3008.06L6925.39,3017C6925.39,3017.81 6926.05,3018.46 6926.86,3018.46L6940.33,3018.46C6946.47,3018.46 6951.44,3013.52 6951.44,3007.42C6951.44,3001.33 6951.44,2994.58 6951.44,2994.58C6951.44,2993.78 6950.78,2993.13 6949.97,2993.13L6940.33,2993.13C6939.52,2993.13 6938.86,2993.78 6938.86,2994.58L6938.86,3006.6ZM6940.33,3015.54L6940.33,3015.54L6928.32,3015.54C6928.32,3015.54 6928.32,3009.51 6928.32,3009.51C6928.32,3009.51 6940.33,3009.51 6940.33,3009.51C6941.14,3009.51 6941.8,3008.86 6941.8,3008.06L6941.8,2996.04C6941.8,2996.04 6948.5,2996.04 6948.5,2996.04C6948.5,2996.04 6948.5,3007.42 6948.5,3007.42C6948.5,3011.91 6944.85,3015.54 6940.33,3015.54L6940.33,3015.54Z" style="fill:white;"/>
            </g>
            <g transform="matrix(0.427347,-5.12235e-18,2.70477e-18,-0.0620241,4124.44,1721.03)">
                <path d="M6973.25,3698.76C6975.29,3698.76 6976.94,3704.17 6976.94,3710.85L6976.94,3761.9C6976.94,3768.57 6975.29,3773.98 6973.25,3773.98L6922.19,3773.98C6920.15,3773.98 6918.5,3768.57 6918.5,3761.9L6918.5,3710.85C6918.5,3704.17 6920.15,3698.76 6922.19,3698.76L6973.25,3698.76ZM6969.55,3722.93L6925.89,3722.93C6925.89,3722.93 6925.89,3749.81 6925.89,3749.81C6925.89,3749.81 6969.55,3749.81 6969.55,3749.81L6969.55,3722.93Z" style="fill:white;"/>
            </g>
            <g transform="matrix(1.0503,0,0,0.489834,-255.399,76.7199)">
                <path d="M7024.3,2922.07C7024.3,2907.81 7012.93,2896.24 6998.94,2896.24L6932.24,2896.24C6918.24,2896.24 6906.88,2907.81 6906.88,2922.07L6906.88,2973.72C6906.88,2987.98 6918.24,2999.55 6932.24,2999.55L6998.94,2999.55C7012.93,2999.55 7024.3,2987.98 7024.3,2973.72L7024.3,2922.07Z" style="fill:rgb(208,1,28);"/>
            </g>
            <g transform="matrix(1.0503,0,0,0.489834,-255.399,76.7199)">
                <path d="M7025.8,2922.07C7025.8,2906.97 7013.76,2894.7 6998.94,2894.7L6932.24,2894.7C6917.41,2894.7 6905.37,2906.97 6905.37,2922.07L6905.37,2973.72C6905.37,2988.82 6917.41,3001.08 6932.24,3001.08C6932.24,3001.08 6998.94,3001.08 6998.94,3001.08C7013.76,3001.08 7025.8,2988.82 7025.8,2973.72C7025.8,2973.72 7025.8,2922.07 7025.8,2922.07ZM7022.79,2922.07L7022.79,2973.72C7022.79,2987.13 7012.1,2998.01 6998.94,2998.01L6932.24,2998.01C6919.07,2998.01 6908.38,2987.13 6908.38,2973.72C6908.38,2973.72 6908.38,2922.07 6908.38,2922.07C6908.38,2908.66 6919.07,2897.77 6932.24,2897.77C6932.24,2897.77 6998.94,2897.77 6998.94,2897.77C7012.1,2897.77 7022.79,2908.66 7022.79,2922.07Z" style="fill:rgb(236,248,254);"/>
            </g>
            <g transform="matrix(1.07913,0,0,0.564271,-460.856,-145.425)">
                <path d="M6930.82,2922.18C6930.82,2920.02 6928.89,2918.26 6926.51,2918.26C6924.13,2918.26 6922.19,2920.02 6922.19,2922.18L6922.19,2983.98C6922.19,2986.14 6924.13,2987.9 6926.51,2987.9C6928.89,2987.9 6930.82,2986.14 6930.82,2983.98L6930.82,2922.18Z" style="fill:rgb(208,1,28);"/>
            </g>
            <g transform="matrix(1.07913,0,0,0.564271,-460.856,-145.425)">
                <path d="M6932.29,2922.18C6932.29,2919.28 6929.7,2916.93 6926.51,2916.93C6923.32,2916.93 6920.73,2919.28 6920.73,2922.18L6920.73,2983.98C6920.73,2986.88 6923.32,2989.23 6926.51,2989.23C6929.7,2989.23 6932.29,2986.88 6932.29,2983.98C6932.29,2983.98 6932.29,2922.18 6932.29,2922.18ZM6929.36,2922.18L6929.36,2983.98C6929.36,2985.41 6928.08,2986.57 6926.51,2986.57C6924.94,2986.57 6923.66,2985.41 6923.66,2983.98C6923.66,2983.98 6923.66,2922.18 6923.66,2922.18C6923.66,2920.76 6924.94,2919.6 6926.51,2919.6C6928.08,2919.6 6929.36,2920.76 6929.36,2922.18Z" style="fill:rgb(236,248,254);"/>
            </g>
            <g transform="matrix(1.07913,0,0,0.564271,-434.898,-145.425)">
                <path d="M6930.82,2922.18C6930.82,2920.02 6928.89,2918.26 6926.51,2918.26C6924.13,2918.26 6922.19,2920.02 6922.19,2922.18L6922.19,2983.98C6922.19,2986.14 6924.13,2987.9 6926.51,2987.9C6928.89,2987.9 6930.82,2986.14 6930.82,2983.98L6930.82,2922.18Z" style="fill:rgb(208,1,28);"/>
            </g>
            <g transform="matrix(1.07913,0,0,0.564271,-434.898,-145.425)">
                <path d="M6932.29,2922.18C6932.29,2919.28 6929.7,2916.93 6926.51,2916.93C6923.32,2916.93 6920.73,2919.28 6920.73,2922.18C6920.73,2922.18 6920.73,2983.98 6920.73,2983.98C6920.73,2986.88 6923.32,2989.23 6926.51,2989.23C6929.7,2989.23 6932.29,2986.88 6932.29,2983.98C6932.29,2983.98 6932.29,2922.18 6932.29,2922.18ZM6929.36,2922.18L6929.36,2983.98C6929.36,2985.41 6928.08,2986.57 6926.51,2986.57C6924.94,2986.57 6923.66,2985.41 6923.66,2983.98L6923.66,2922.18C6923.66,2920.76 6924.94,2919.6 6926.51,2919.6C6928.08,2919.6 6929.36,2920.76 6929.36,2922.18Z" style="fill:rgb(236,248,254);"/>
            </g>
            <g transform="matrix(1.07913,0,0,0.564271,-391.427,-145.425)">
                <path d="M6930.82,2922.18C6930.82,2920.02 6928.89,2918.26 6926.51,2918.26C6924.13,2918.26 6922.19,2920.02 6922.19,2922.18L6922.19,2983.98C6922.19,2986.14 6924.13,2987.9 6926.51,2987.9C6928.89,2987.9 6930.82,2986.14 6930.82,2983.98L6930.82,2922.18Z" style="fill:rgb(208,1,28);"/>
            </g>
            <g transform="matrix(1.07913,0,0,0.564271,-391.427,-145.425)">
                <path d="M6932.29,2922.18C6932.29,2919.28 6929.7,2916.93 6926.51,2916.93C6923.32,2916.93 6920.73,2919.28 6920.73,2922.18C6920.73,2922.18 6920.73,2983.98 6920.73,2983.98C6920.73,2986.88 6923.32,2989.23 6926.51,2989.23C6929.7,2989.23 6932.29,2986.88 6932.29,2983.98C6932.29,2983.98 6932.29,2922.18 6932.29,2922.18ZM6929.36,2922.18L6929.36,2983.98C6929.36,2985.41 6928.08,2986.57 6926.51,2986.57C6924.94,2986.57 6923.66,2985.41 6923.66,2983.98L6923.66,2922.18C6923.66,2920.76 6924.94,2919.6 6926.51,2919.6C6928.08,2919.6 6929.36,2920.76 6929.36,2922.18Z" style="fill:rgb(236,248,254);"/>
            </g>
            <g transform="matrix(1.07913,0,0,0.564271,-369.109,-145.425)">
                <path d="M6930.82,2922.18C6930.82,2920.02 6928.89,2918.26 6926.51,2918.26C6924.13,2918.26 6922.19,2920.02 6922.19,2922.18L6922.19,2983.98C6922.19,2986.14 6924.13,2987.9 6926.51,2987.9C6928.89,2987.9 6930.82,2986.14 6930.82,2983.98L6930.82,2922.18Z" style="fill:rgb(208,1,28);"/>
            </g>
            <g transform="matrix(1.07913,0,0,0.564271,-369.109,-145.425)">
                <path d="M6932.29,2922.18C6932.29,2919.28 6929.7,2916.93 6926.51,2916.93C6923.32,2916.93 6920.73,2919.28 6920.73,2922.18L6920.73,2983.98C6920.73,2986.88 6923.32,2989.23 6926.51,2989.23C6929.7,2989.23 6932.29,2986.88 6932.29,2983.98C6932.29,2983.98 6932.29,2922.18 6932.29,2922.18ZM6929.36,2922.18L6929.36,2983.98C6929.36,2985.41 6928.08,2986.57 6926.51,2986.57C6924.94,2986.57 6923.66,2985.41 6923.66,2983.98C6923.66,2983.98 6923.66,2922.18 6923.66,2922.18C6923.66,2920.76 6924.94,2919.6 6926.51,2919.6C6928.08,2919.6 6929.36,2920.76 6929.36,2922.18Z" style="fill:rgb(236,248,254);"/>
            </g>
            <g transform="matrix(0.653135,0,0,2.40854,6835.29,-628.406)">
                <g transform="matrix(1.07929,0,0,0.139787,-43.243,-70.8792)">
                    <circle cx="359.111" cy="6890.86" r="47.301" style="fill:rgb(208,1,0);"/>
                </g>
                <g transform="matrix(1.07929,0,0,0.139787,-43.243,-70.8792)">
                    <path d="M359.111,6841.32C331.77,6841.32 309.566,6863.51 309.566,6890.86C309.566,6918.2 331.77,6940.39 359.111,6940.39C386.452,6940.39 408.656,6918.2 408.656,6890.86C408.656,6863.51 386.452,6841.32 359.111,6841.32ZM359.111,6845.79C383.982,6845.79 404.167,6865.98 404.167,6890.86C404.167,6915.73 383.982,6935.92 359.111,6935.92C334.24,6935.92 314.054,6915.73 314.054,6890.86C314.054,6865.98 334.24,6845.79 359.111,6845.79Z" style="fill:white;"/>
                </g>
                <g transform="matrix(1.21094,0,0,1.21094,-71.8936,-188.323)">
                    <g transform="matrix(0.217652,0,0,0.0281898,266.181,698.123)">
                        <circle cx="359.111" cy="6890.86" r="47.301" style="fill:rgb(208,1,0);"/>
                    </g>
                    <g transform="matrix(0.217652,0,0,0.0281898,266.181,698.123)">
                        <path d="M359.111,6834.42C327.947,6834.42 302.62,6859.69 302.62,6890.86C302.62,6922.02 327.947,6947.29 359.111,6947.29C390.274,6947.29 415.601,6922.02 415.601,6890.86C415.601,6859.69 390.274,6834.42 359.111,6834.42ZM359.111,6852.69C380.159,6852.69 397.222,6869.81 397.222,6890.86C397.222,6911.9 380.159,6929.02 359.111,6929.02C338.063,6929.02 321,6911.9 321,6890.86C321,6869.81 338.063,6852.69 359.111,6852.69Z" style="fill:white;"/>
                    </g>
                    <g transform="matrix(0.107982,0,0,0.0139856,305.565,796.002)">
                        <circle cx="359.111" cy="6890.86" r="47.301" style="fill:white;"/>
                    </g>
                    <g transform="matrix(1,0,0,0.129517,-892.675,-4.8027)">
                        <path d="M1230.58,6918.97C1228.46,6919.65 1224.06,6905.45 1228.93,6900.29C1233.54,6895.41 1258.89,6902.98 1253.87,6905.96C1250.9,6907.71 1234.77,6915.93 1240.16,6917.32" style="fill:white;"/>
                    </g>
                    <g transform="matrix(1,0,0,0.129517,-892.675,-4.8027)">
                        <path d="M1231.05,6917.04C1230.85,6916.72 1230.46,6916.05 1230.23,6915.48C1229.29,6913.14 1228.54,6909.56 1228.76,6906.36C1228.89,6904.52 1229.31,6902.79 1230.39,6901.65C1230.71,6901.31 1231.24,6901.12 1231.87,6900.97C1232.79,6900.75 1233.89,6900.67 1235.11,6900.68C1239.09,6900.72 1244.11,6901.8 1247.92,6903.14C1249.27,6903.62 1250.71,6904.4 1251.64,6904.93C1249.21,6906.28 1244.64,6908.77 1241.43,6911.03C1239.45,6912.43 1237.98,6913.84 1237.45,6914.88C1236.91,6915.94 1236.98,6916.89 1237.4,6917.66C1237.74,6918.28 1238.39,6918.92 1239.66,6919.25C1240.73,6919.53 1241.82,6918.89 1242.1,6917.83C1242.27,6917.16 1242.09,6916.49 1241.66,6916.01C1242.04,6915.63 1242.54,6915.17 1243.01,6914.81C1246.72,6912.02 1253.14,6908.7 1254.89,6907.67C1255.97,6907.03 1256.39,6906.21 1256.5,6905.43C1256.62,6904.49 1256.23,6903.29 1254.91,6902.22C1251.87,6899.74 1242.1,6896.77 1235.14,6896.7C1231.66,6896.67 1228.85,6897.46 1227.47,6898.93C1225.61,6900.9 1224.77,6903.95 1224.73,6907.21C1224.66,6911.69 1226.05,6916.52 1227.4,6918.8C1228.05,6919.88 1228.79,6920.51 1229.38,6920.76C1230.01,6921.04 1230.62,6921.05 1231.19,6920.86C1232.25,6920.53 1232.82,6919.4 1232.48,6918.36C1232.26,6917.68 1231.7,6917.2 1231.05,6917.04Z" style="fill:white;"/>
                    </g>
                    <g transform="matrix(-0.5,0.112165,-0.866025,-0.0647587,6961.87,1202.21)">
                        <path d="M1230.58,6918.97C1228.46,6919.65 1224.06,6905.45 1228.93,6900.29C1233.54,6895.41 1258.89,6902.98 1253.87,6905.96C1250.9,6907.71 1234.77,6915.93 1240.16,6917.32" style="fill:white;"/>
                    </g>
                    <g transform="matrix(-0.5,0.112165,-0.866025,-0.0647587,6961.87,1202.21)">
                        <path d="M1231.03,6917.03C1230.84,6916.72 1230.44,6916.05 1230.21,6915.48C1229.27,6913.14 1228.53,6909.57 1228.75,6906.38C1228.88,6904.53 1229.3,6902.8 1230.38,6901.66C1230.71,6901.31 1231.24,6901.13 1231.87,6900.98C1232.79,6900.75 1233.9,6900.67 1235.12,6900.68C1239.1,6900.72 1244.13,6901.8 1247.93,6903.15C1249.28,6903.62 1250.71,6904.39 1251.64,6904.93C1249.21,6906.28 1244.65,6908.76 1241.44,6911.02C1239.46,6912.42 1237.99,6913.82 1237.46,6914.86C1236.92,6915.93 1236.99,6916.89 1237.42,6917.67C1237.75,6918.28 1238.41,6918.93 1239.68,6919.25C1240.74,6919.53 1241.82,6918.89 1242.09,6917.82C1242.26,6917.16 1242.07,6916.49 1241.65,6916.02C1242.04,6915.64 1242.53,6915.18 1243,6914.82C1246.71,6912.03 1253.13,6908.71 1254.88,6907.68C1255.96,6907.04 1256.38,6906.22 1256.48,6905.44C1256.61,6904.5 1256.22,6903.29 1254.89,6902.21C1251.85,6899.74 1242.09,6896.77 1235.13,6896.7C1231.66,6896.66 1228.86,6897.46 1227.48,6898.92C1225.62,6900.89 1224.78,6903.94 1224.74,6907.2C1224.67,6911.69 1226.06,6916.52 1227.42,6918.8C1228.06,6919.88 1228.81,6920.51 1229.39,6920.77C1230.02,6921.04 1230.63,6921.05 1231.19,6920.87C1232.24,6920.53 1232.81,6919.41 1232.47,6918.36C1232.25,6917.68 1231.68,6917.19 1231.03,6917.03Z" style="fill:white;"/>
                    </g>
                    <g transform="matrix(-0.5,-0.112165,0.866025,-0.0647587,-5036.17,1479.71)">
                        <path d="M1230.58,6918.97C1228.46,6919.65 1224.06,6905.45 1228.93,6900.29C1233.54,6895.41 1258.89,6902.98 1253.87,6905.96C1250.9,6907.71 1234.77,6915.93 1240.16,6917.32" style="fill:white;"/>
                    </g>
                    <g transform="matrix(-0.5,-0.112165,0.866025,-0.0647587,-5036.17,1479.71)">
                        <path d="M1231.05,6917.02C1230.85,6916.71 1230.45,6916.03 1230.22,6915.46C1229.28,6913.12 1228.53,6909.55 1228.76,6906.36C1228.89,6904.52 1229.31,6902.8 1230.38,6901.66C1230.7,6901.32 1231.23,6901.14 1231.86,6900.99C1232.78,6900.76 1233.88,6900.68 1235.1,6900.69C1239.08,6900.73 1244.11,6901.81 1247.91,6903.16C1249.26,6903.63 1250.69,6904.4 1251.62,6904.94C1249.18,6906.29 1244.64,6908.76 1241.45,6911.02C1239.46,6912.42 1237.99,6913.83 1237.46,6914.87C1236.91,6915.94 1236.98,6916.9 1237.4,6917.68C1237.74,6918.3 1238.4,6918.94 1239.66,6919.26C1240.72,6919.54 1241.82,6918.9 1242.1,6917.82C1242.27,6917.16 1242.09,6916.48 1241.67,6916C1242.05,6915.63 1242.53,6915.17 1243,6914.82C1246.7,6912.03 1253.12,6908.72 1254.88,6907.68C1255.96,6907.04 1256.39,6906.21 1256.49,6905.43C1256.62,6904.49 1256.23,6903.28 1254.91,6902.2C1251.87,6899.73 1242.11,6896.76 1235.15,6896.69C1231.67,6896.65 1228.86,6897.45 1227.48,6898.92C1225.61,6900.9 1224.78,6903.96 1224.73,6907.22C1224.66,6911.71 1226.05,6916.54 1227.41,6918.82C1228.05,6919.9 1228.79,6920.52 1229.38,6920.78C1230.01,6921.05 1230.61,6921.06 1231.18,6920.88C1232.23,6920.54 1232.82,6919.41 1232.48,6918.36C1232.27,6917.67 1231.7,6917.18 1231.05,6917.02Z" style="fill:white;"/>
                    </g>
                </g>
            </g>
        </g>
    </g>
</svg>
