<?xml version="1.0" encoding="UTF-8" standalone="no"?><!DOCTYPE svg PUBLIC "-//W3C//DTD SVG 1.1//EN" "http://www.w3.org/Graphics/SVG/1.1/DTD/svg11.dtd"><svg width="100%" height="100%" viewBox="0 0 500 493" version="1.1" xmlns="http://www.w3.org/2000/svg" xmlns:xlink="http://www.w3.org/1999/xlink" xml:space="preserve" xmlns:serif="http://www.serif.com/" style="fill-rule:evenodd;clip-rule:evenodd;stroke-linecap:round;stroke-linejoin:round;stroke-miterlimit:1.5;"><rect x="0" y="0" width="500" height="492.059" style="fill:#d0011c;"/><g><g><path d="M374.946,390.89l65.238,-233.617" style="fill:none;stroke:#fff;stroke-width:8.33px;"/><path d="M149.006,57.539l262.145,56.895" style="fill:none;stroke:#fff;stroke-width:8.33px;"/><g><g><circle cx="292.924" cy="365.493" r="85.847" style="fill:#d00100;stroke:#fff;stroke-width:8.33px;"/><circle cx="292.924" cy="365.493" r="64.375" style="fill:#d00100;stroke:#fff;stroke-width:8.33px;"/><circle cx="292.924" cy="365.493" r="23.848" style="fill:#d00100;stroke:#fff;stroke-width:8.33px;"/></g></g><g><g><g><circle cx="134.609" cy="136.663" r="80.412" style="fill:#d00100;stroke:#fff;stroke-width:8.33px;"/><circle cx="134.609" cy="136.663" r="22.338" style="fill:#d00100;stroke:#fff;stroke-width:8.33px;"/></g></g><path d="M140.91,71.819c-4.191,-0.407 -8.411,-0.407 -12.602,-0l-2.721,10.642c-3.503,0.583 -6.941,1.504 -10.266,2.751l-7.678,-7.856c-3.832,1.743 -7.487,3.853 -10.913,6.301l2.965,10.576c-2.743,2.257 -5.259,4.774 -7.516,7.516l-10.576,-2.965c-2.448,3.426 -4.559,7.081 -6.301,10.914l7.855,7.677c-1.246,3.325 -2.167,6.763 -2.75,10.266l-10.642,2.721c-0.407,4.191 -0.407,8.411 -0,12.602l10.642,2.721c0.583,3.503 1.504,6.941 2.75,10.266l-7.855,7.677c1.742,3.833 3.853,7.488 6.301,10.914l10.576,-2.965c2.257,2.742 4.773,5.259 7.516,7.515l-2.965,10.577c3.426,2.448 7.081,4.558 10.913,6.301l7.678,-7.856c3.325,1.247 6.763,2.168 10.266,2.751l2.721,10.642c4.191,0.407 8.411,0.407 12.602,-0l2.72,-10.642c3.503,-0.583 6.942,-1.504 10.267,-2.751l7.677,7.856c3.833,-1.743 7.488,-3.853 10.913,-6.301l-2.964,-10.577c2.742,-2.256 5.259,-4.773 7.515,-7.515l10.577,2.965c2.448,-3.426 4.558,-7.081 6.301,-10.914l-7.856,-7.677c1.247,-3.325 2.168,-6.763 2.751,-10.266l10.642,-2.721c0.407,-4.191 0.407,-8.411 -0,-12.602l-10.642,-2.721c-0.583,-3.503 -1.504,-6.941 -2.751,-10.266l7.856,-7.677c-1.743,-3.833 -3.853,-7.488 -6.301,-10.914l-10.577,2.965c-2.256,-2.742 -4.773,-5.259 -7.515,-7.516l2.964,-10.576c-3.425,-2.448 -7.08,-4.558 -10.913,-6.301l-7.677,7.856c-3.325,-1.247 -6.764,-2.168 -10.267,-2.751l-2.72,-10.642Zm-6.301,20.565c24.438,-0 44.279,19.84 44.279,44.279c0,24.438 -19.841,44.279 -44.279,44.279c-24.439,0 -44.28,-19.841 -44.28,-44.279c0,-24.439 19.841,-44.279 44.28,-44.279Z" style="fill:#fff;"/></g><circle cx="399.175" cy="154.187" r="45.9" style="fill:#fff;"/><path d="M402.996,114.855c-2.542,-0.247 -5.101,-0.247 -7.643,-0l-1.857,5.218c-2.204,0.367 -4.368,0.947 -6.461,1.732l-4.217,-3.592c-2.325,1.057 -4.542,2.337 -6.619,3.822l1.001,5.448c-1.725,1.42 -3.309,3.004 -4.73,4.73l-5.447,-1.002c-1.485,2.078 -2.765,4.295 -3.822,6.62l3.591,4.217c-0.784,2.092 -1.364,4.256 -1.731,6.461l-5.219,1.856c-0.247,2.542 -0.247,5.102 0,7.644l5.219,1.856c0.367,2.205 0.947,4.369 1.731,6.461l-3.591,4.217c1.057,2.325 2.337,4.542 3.822,6.62l5.447,-1.002c1.421,1.726 3.005,3.31 4.73,4.73l-1.001,5.448c2.077,1.485 4.294,2.765 6.619,3.822l4.217,-3.592c2.093,0.785 4.257,1.365 6.461,1.731l1.857,5.219c2.542,0.247 5.101,0.247 7.643,0l1.857,-5.219c2.204,-0.366 4.368,-0.946 6.461,-1.731l4.217,3.592c2.325,-1.057 4.542,-2.337 6.62,-3.822l-1.002,-5.448c1.725,-1.42 3.31,-3.004 4.73,-4.73l5.447,1.002c1.485,-2.078 2.765,-4.295 3.822,-6.62l-3.591,-4.217c0.784,-2.092 1.364,-4.256 1.731,-6.461l5.219,-1.856c0.247,-2.542 0.247,-5.102 -0,-7.644l-5.219,-1.856c-0.367,-2.205 -0.947,-4.369 -1.731,-6.461l3.591,-4.217c-1.057,-2.325 -2.337,-4.542 -3.822,-6.62l-5.447,1.002c-1.42,-1.726 -3.005,-3.31 -4.73,-4.73l1.002,-5.448c-2.078,-1.485 -4.295,-2.765 -6.62,-3.822l-4.217,3.592c-2.093,-0.785 -4.257,-1.365 -6.461,-1.732l-1.857,-5.218Zm-3.821,16.697c12.492,0 22.634,10.143 22.634,22.635c0,12.492 -10.142,22.635 -22.634,22.635c-12.493,-0 -22.635,-10.143 -22.635,-22.635c-0,-12.492 10.142,-22.635 22.635,-22.635Z" style="fill:#d0011c;"/><path d="M67.523,182.477l160.555,239.25" style="fill:none;stroke:#fff;stroke-width:8.33px;"/></g></g></svg>