<?xml version="1.0" encoding="UTF-8" standalone="no"?>
<!DOCTYPE svg PUBLIC "-//W3C//DTD SVG 1.1//EN" "http://www.w3.org/Graphics/SVG/1.1/DTD/svg11.dtd">
<svg width="100%" height="100%" viewBox="0 0 51 39" version="1.1" xmlns="http://www.w3.org/2000/svg" xmlns:xlink="http://www.w3.org/1999/xlink" xml:space="preserve" xmlns:serif="http://www.serif.com/" style="fill-rule:evenodd;clip-rule:evenodd;stroke-linejoin:round;stroke-miterlimit:1.5;">
    <g transform="matrix(1,0,0,1,-373.032,-223.986)">
        <g transform="matrix(0.798123,0,0,0.866744,80.4089,33.2228)">
            <g>
                <g transform="matrix(1.08929,0,0,1.25776,-34.2906,-67.8694)">
                    <path d="M378.456,257.315C378.456,256.079 377.198,255.075 375.647,255.075L372.219,255.075C370.668,255.075 369.41,256.079 369.41,257.315L369.41,262.062C369.41,263.298 370.668,264.302 372.219,264.302L375.647,264.302C377.198,264.302 378.456,263.298 378.456,262.062L378.456,257.315Z" style="fill:rgb(208,1,28);"/>
                </g>
                <g transform="matrix(1.08929,0,0,1.25776,16.0431,-67.8694)">
                    <path d="M378.456,257.315C378.456,256.079 377.198,255.075 375.647,255.075L372.219,255.075C370.668,255.075 369.41,256.079 369.41,257.315L369.41,262.062C369.41,263.298 370.668,264.302 372.219,264.302L375.647,264.302C377.198,264.302 378.456,263.298 378.456,262.062L378.456,257.315Z" style="fill:rgb(208,1,28);"/>
                </g>
                <g transform="matrix(1,0,0,1,-0.196384,-0.853403)">
                    <path d="M422.769,233.519C422.769,233.519 418.738,223.537 413.715,221.915C403.508,220.708 393.279,220.539 383.019,221.915C377.781,223.65 374.614,232.7 374.614,232.7C374.614,234.268 375.847,236.361 377.416,236.361L419.926,236.361C421.495,236.361 422.769,235.087 422.769,233.519Z" style="fill:rgb(208,1,28);"/>
                </g>
                <g transform="matrix(0.865368,0,0,0.779558,53.4802,49.5512)">
                    <path d="M422.769,233.519C422.769,233.519 418.738,223.537 413.715,221.915C403.508,220.708 393.279,220.539 383.019,221.915C377.781,223.65 374.614,232.7 374.614,232.7C374.614,234.268 375.847,236.361 377.416,236.361L419.926,236.361C421.495,236.361 422.769,235.087 422.769,233.519Z" style="fill:white;"/>
                </g>
                <g transform="matrix(1.02415,0,0,1.04645,-12.256,-12.7285)">
                    <path d="M430.335,242.133C430.335,238.958 426.419,236.38 423.175,236.38C406.816,234.693 395.064,234.629 378.199,236.38C374.955,236.38 370.766,238.958 370.766,242.133L369.959,253.638C369.959,256.812 371.503,258.731 375.836,259.39C392.756,261.962 409.374,262.047 425.659,259.39C430.154,258.656 431.537,256.812 431.537,253.638L430.335,242.133Z" style="fill:rgb(208,1,28);"/>
                </g>
                <g transform="matrix(1,0,0,1,-0.226082,-0.211313)">
                    <path d="M384.793,250.451C384.793,249.302 383.86,248.369 382.711,248.369L372.261,248.369C371.112,248.369 370.179,249.302 370.179,250.451L370.949,254.615C370.949,255.764 371.882,256.697 373.032,256.697L381.285,256.697C383.489,256.715 384.793,250.451 384.793,250.451Z" style="fill:white;"/>
                </g>
                <g transform="matrix(-1,0,0,1,796.568,-0.211313)">
                    <path d="M384.793,250.451C384.793,249.302 383.86,248.369 382.711,248.369L372.261,248.369C371.112,248.369 370.179,249.302 370.179,250.451L370.949,254.615C370.949,255.764 371.882,256.697 373.032,256.697L381.285,256.697C383.489,256.715 384.793,250.451 384.793,250.451Z" style="fill:white;"/>
                </g>
                <g transform="matrix(0.901271,0,0,0.901271,34.4752,21.9802)">
                    <circle cx="377.913" cy="242.869" r="4.882" style="fill:white;"/>
                </g>
                <g transform="matrix(0.901271,0,0,0.901271,80.5378,21.9802)">
                    <circle cx="377.913" cy="242.869" r="4.882" style="fill:white;"/>
                </g>
                <g transform="matrix(1,0,0,1,-1.21595,-0.227843)">
                    <path d="M412.991,256.571C412.991,256.571 412.129,253.089 410.274,252.953C402.959,252.417 395.644,252.413 388.329,252.953C386.992,253.211 385.783,256.571 385.783,256.571C385.783,257.237 386.323,257.777 386.989,257.777L411.785,257.777C412.45,257.777 412.991,257.237 412.991,256.571Z" style="fill:white;"/>
                </g>
                <g transform="matrix(1,0,0,1,1.35012,0)">
                    <path d="M373.321,232.841C373.321,232.841 373.768,229.932 371.987,229.656C370.206,229.379 368.377,229.87 367.775,230.57C367.173,231.271 365.434,233.362 366.638,234.467C367.842,235.572 369.645,235.507 369.645,235.507L375.991,234.467L374.771,232.065C374.771,232.065 374.675,233.146 373.976,233.283C373.276,233.421 373.321,232.841 373.321,232.841Z" style="fill:rgb(208,1,28);"/>
                </g>
                <g transform="matrix(-1,0,0,1,795.258,0)">
                    <path d="M373.321,232.841C373.321,232.841 373.768,229.932 371.987,229.656C370.206,229.379 368.377,229.87 367.775,230.57C367.173,231.271 365.434,233.362 366.638,234.467C367.842,235.572 369.645,235.507 369.645,235.507L375.991,234.467L374.771,232.065C374.771,232.065 374.675,233.146 373.976,233.283C373.276,233.421 373.321,232.841 373.321,232.841Z" style="fill:rgb(208,1,28);"/>
                </g>
            </g>
            <g transform="matrix(0.821215,0,0,0.821215,69.7967,43.3241)">
                <g transform="matrix(0.0298274,0,0,0.0167046,341.376,202.569)">
                    <path d="M2003.8,2385.72C1980.23,2378.17 1954.74,2377.85 1927.06,2385.72L1927.06,2459.12L2003.8,2459.12L2003.8,2385.72Z" style="fill:rgb(255,255,254);stroke:rgb(255,255,254);stroke-width:25.75px;"/>
                </g>
                <g transform="matrix(0.0143786,0,0,0.0151799,371.099,206.233)">
                    <path d="M1930.44,2466.59L2089.63,2466.71C2085.36,2511.95 2029.12,2545.76 2010.04,2545.76C1990.95,2545.76 1934.89,2514.88 1930.44,2466.59Z" style="fill:rgb(255,255,254);stroke:rgb(255,255,254);stroke-width:41.1px;"/>
                </g>
            </g>
        </g>
    </g>
</svg>
