<?xml version="1.0" encoding="UTF-8" standalone="no"?><!DOCTYPE svg PUBLIC "-//W3C//DTD SVG 1.1//EN" "http://www.w3.org/Graphics/SVG/1.1/DTD/svg11.dtd"><svg width="100%" height="100%" viewBox="0 0 500 495" version="1.1" xmlns="http://www.w3.org/2000/svg" xmlns:xlink="http://www.w3.org/1999/xlink" xml:space="preserve" xmlns:serif="http://www.serif.com/" style="fill-rule:evenodd;clip-rule:evenodd;stroke-linecap:round;stroke-linejoin:round;stroke-miterlimit:1.5;"><rect x="-0" y="0" width="500" height="494.393" style="fill:#d0011c;"/><g><circle cx="252.664" cy="244.393" r="159.535" style="fill:#d0011c;stroke:#fff;stroke-width:8.33px;"/><path d="M263.997,127.762c-7.538,-0.732 -15.128,-0.732 -22.666,0l-3.644,26.648c-5.816,0.968 -11.524,2.497 -17.044,4.567l-16.48,-21.255c-6.894,3.134 -13.467,6.929 -19.629,11.333l10.168,24.899c-4.553,3.746 -8.731,7.924 -12.477,12.477l-24.9,-10.168c-4.403,6.162 -8.198,12.736 -11.333,19.629l21.256,16.48c-2.07,5.521 -3.599,11.228 -4.567,17.044l-26.648,3.644c-0.732,7.538 -0.732,15.129 0,22.666l26.648,3.644c0.968,5.816 2.497,11.524 4.567,17.044l-21.256,16.48c3.135,6.894 6.93,13.468 11.333,19.629l24.9,-10.167c3.746,4.552 7.924,8.73 12.477,12.476l-10.168,24.9c6.162,4.403 12.735,8.198 19.629,11.333l16.48,-21.255c5.52,2.069 11.228,3.598 17.044,4.566l3.644,26.648c7.538,0.732 15.128,0.732 22.666,-0l3.644,-26.648c5.816,-0.968 11.524,-2.497 17.044,-4.566l16.48,21.255c6.894,-3.135 13.468,-6.93 19.629,-11.333l-10.168,-24.9c4.553,-3.746 8.731,-7.924 12.477,-12.476l24.9,10.167c4.403,-6.161 8.198,-12.735 11.333,-19.629l-21.255,-16.48c2.069,-5.52 3.598,-11.228 4.566,-17.044l26.648,-3.644c0.732,-7.537 0.732,-15.128 -0,-22.666l-26.648,-3.644c-0.968,-5.816 -2.497,-11.523 -4.566,-17.044l21.255,-16.48c-3.135,-6.893 -6.93,-13.467 -11.333,-19.629l-24.9,10.168c-3.746,-4.553 -7.924,-8.731 -12.477,-12.477l10.168,-24.899c-6.161,-4.404 -12.735,-8.199 -19.629,-11.333l-16.48,21.255c-5.52,-2.07 -11.228,-3.599 -17.044,-4.567l-3.644,-26.648Zm-11.333,64.381c28.838,-0 52.25,23.412 52.25,52.25c0,28.838 -23.412,52.251 -52.25,52.251c-28.838,-0 -52.25,-23.413 -52.25,-52.251c-0,-28.838 23.412,-52.25 52.25,-52.25Z" style="fill:#fff;"/></g><path d="M344.953,287.32c-0,0 -37.596,62.208 -37.596,88.869c0,20.749 16.846,37.595 37.596,37.595c20.749,0 37.595,-16.846 37.595,-37.595c-0,-26.661 -37.595,-88.869 -37.595,-88.869Z" style="fill:#d0011c;stroke:#ecf8fe;stroke-width:8.33px;"/></svg>