<?xml version="1.0" encoding="UTF-8" standalone="no"?><!DOCTYPE svg PUBLIC "-//W3C//DTD SVG 1.1//EN" "http://www.w3.org/Graphics/SVG/1.1/DTD/svg11.dtd"><svg width="100%" height="100%" viewBox="0 0 500 500" version="1.1" xmlns="http://www.w3.org/2000/svg" xmlns:xlink="http://www.w3.org/1999/xlink" xml:space="preserve" xmlns:serif="http://www.serif.com/" style="fill-rule:evenodd;clip-rule:evenodd;stroke-linecap:round;stroke-linejoin:round;stroke-miterlimit:1.5;"><rect x="0" y="-0" width="500" height="500" style="fill:#d0011c;"/><g><g><g><circle cx="329.911" cy="171.255" r="111.13" style="fill:#d00100;stroke:#fff;stroke-width:8.33px;"/><circle cx="329.911" cy="171.255" r="83.334" style="fill:#d00100;stroke:#fff;stroke-width:8.33px;"/><circle cx="329.911" cy="171.255" r="30.871" style="fill:#d00100;stroke:#fff;stroke-width:8.33px;"/><path d="M384.869,125.661c2.11,6.479 -1.437,13.452 -7.916,15.562c-6.479,2.11 -13.452,-1.437 -15.562,-7.916c-2.11,-6.479 1.437,-13.452 7.916,-15.562c6.479,-2.11 13.452,1.437 15.562,7.916Z" style="fill:#fff;"/><path d="M380.397,226.313c-5.507,4.012 -13.236,2.799 -17.249,-2.709c-4.012,-5.507 -2.799,-13.235 2.708,-17.248c5.507,-4.013 13.236,-2.799 17.249,2.708c4.012,5.507 2.799,13.236 -2.708,17.249Z" style="fill:#fff;"/><path d="M279.459,224.473c-5.521,-3.993 -6.76,-11.718 -2.766,-17.239c3.994,-5.52 11.718,-6.76 17.239,-2.766c5.521,3.994 6.76,11.719 2.766,17.239c-3.994,5.521 -11.719,6.76 -17.239,2.766Z" style="fill:#fff;"/><path d="M274.94,125.7c2.088,-6.486 9.049,-10.056 15.535,-7.968c6.486,2.088 10.057,9.049 7.969,15.535c-2.089,6.486 -9.05,10.057 -15.536,7.969c-6.486,-2.088 -10.056,-9.049 -7.968,-15.536Z" style="fill:#fff;"/></g></g><path d="M160.468,435.081l245.236,-182.581" style="fill:none;stroke:#fff;stroke-width:8.33px;"/><g><g><circle cx="125.476" cy="377.511" r="67.371" style="fill:#d00100;stroke:#fff;stroke-width:8.33px;"/><circle cx="125.476" cy="377.511" r="43.275" style="fill:#d00100;stroke:#fff;stroke-width:8.33px;"/><circle cx="125.476" cy="377.511" r="18.715" style="fill:#fff;"/></g></g><path d="M68.903,340.614l181.097,-246.332" style="fill:none;stroke:#fff;stroke-width:8.33px;"/><path d="M120.938,287.88l-8.817,-6.052l-4.68,6.818l8.818,6.052l4.679,-6.818Z" style="fill:#fff;"/><path d="M120.938,287.88l-8.817,-6.052l-4.68,6.818l8.818,6.052l4.679,-6.818Z" style="fill:#fff;"/><path d="M120.938,287.88l-8.817,-6.052l-4.68,6.818l8.818,6.052l4.679,-6.818Z" style="fill:#fff;"/><path d="M217.425,392.154l-6.258,-8.673l-6.706,4.839l6.258,8.672l6.706,-4.838Z" style="fill:#fff;"/><path d="M229.675,382.837l-6.258,-8.672l-6.706,4.839l6.258,8.672l6.706,-4.839Z" style="fill:#fff;"/><path d="M241.925,373.521l-6.258,-8.672l-6.706,4.839l6.258,8.672l6.706,-4.839Z" style="fill:#fff;"/><path d="M254.175,364.205l-6.258,-8.672l-6.706,4.838l6.258,8.673l6.706,-4.839Z" style="fill:#fff;"/><path d="M266.425,354.889l-6.258,-8.672l-6.706,4.838l6.258,8.673l6.706,-4.839Z" style="fill:#fff;"/><path d="M278.675,345.573l-6.258,-8.673l-6.706,4.839l6.258,8.673l6.706,-4.839Z" style="fill:#fff;"/><path d="M290.925,336.257l-6.258,-8.673l-6.706,4.839l6.258,8.673l6.706,-4.839Z" style="fill:#fff;"/><path d="M303.175,326.941l-6.258,-8.673l-6.706,4.839l6.258,8.672l6.706,-4.838Z" style="fill:#fff;"/><path d="M315.425,317.625l-6.257,-8.673l-6.707,4.839l6.258,8.672l6.706,-4.838Z" style="fill:#fff;"/><path d="M327.675,308.309l-6.257,-8.673l-6.706,4.839l6.257,8.672l6.706,-4.838Z" style="fill:#fff;"/><path d="M130.22,275.01l-8.817,-6.052l-4.68,6.818l8.817,6.052l4.68,-6.818Z" style="fill:#fff;"/><path d="M139.501,262.14l-8.817,-6.052l-4.679,6.818l8.817,6.052l4.679,-6.818Z" style="fill:#fff;"/><path d="M148.783,249.27l-8.817,-6.052l-4.68,6.818l8.817,6.052l4.68,-6.818Z" style="fill:#fff;"/><path d="M158.065,236.4l-8.818,-6.052l-4.679,6.818l8.817,6.052l4.68,-6.818Z" style="fill:#fff;"/><path d="M167.346,223.53l-8.817,-6.051l-4.68,6.818l8.818,6.051l4.679,-6.818Z" style="fill:#fff;"/><path d="M176.628,210.661l-8.817,-6.052l-4.68,6.818l8.817,6.052l4.68,-6.818Z" style="fill:#fff;"/><path d="M185.909,197.791l-8.817,-6.052l-4.679,6.818l8.817,6.052l4.679,-6.818Z" style="fill:#fff;"/><path d="M195.191,184.921l-8.817,-6.052l-4.68,6.818l8.817,6.052l4.68,-6.818Z" style="fill:#fff;"/></g></svg>