<?xml version="1.0" encoding="UTF-8" standalone="no"?><!DOCTYPE svg PUBLIC "-//W3C//DTD SVG 1.1//EN" "http://www.w3.org/Graphics/SVG/1.1/DTD/svg11.dtd"><svg width="100%" height="100%" viewBox="0 0 504 504" version="1.1" xmlns="http://www.w3.org/2000/svg" xmlns:xlink="http://www.w3.org/1999/xlink" xml:space="preserve" xmlns:serif="http://www.serif.com/" style="fill-rule:evenodd;clip-rule:evenodd;stroke-linecap:round;stroke-linejoin:round;stroke-miterlimit:1.5;"><rect x="1.885" y="1.885" width="500" height="500" style="fill:#d0011c;stroke:#fff;stroke-width:3.77px;"/><path d="M266.53,105.226c-9.74,-0.946 -19.55,-0.946 -29.29,0l-4.363,36.515c-7.38,1.229 -14.624,3.17 -21.63,5.796l-22.036,-29.441c-8.909,4.05 -17.403,8.955 -25.366,14.645l14.479,33.804c-5.777,4.754 -11.08,10.057 -15.834,15.834l-33.804,-14.479c-5.69,7.962 -10.595,16.457 -14.645,25.366l29.441,22.036c-2.626,7.006 -4.567,14.25 -5.795,21.63l-36.515,4.363c-0.947,9.74 -0.947,19.549 -0,29.29l36.515,4.363c1.228,7.38 3.169,14.624 5.795,21.63l-29.441,22.036c4.05,8.908 8.955,17.403 14.645,25.365l33.804,-14.479c4.754,5.778 10.057,11.081 15.834,15.835l-14.479,33.804c7.963,5.69 16.457,10.594 25.366,14.645l22.036,-29.442c7.006,2.627 14.25,4.568 21.63,5.796l4.363,36.515c9.74,0.947 19.55,0.947 29.29,0l4.363,-36.515c7.38,-1.228 14.624,-3.169 21.63,-5.796l22.036,29.442c8.908,-4.051 17.403,-8.955 25.365,-14.645l-14.479,-33.804c5.778,-4.754 11.081,-10.057 15.835,-15.835l33.804,14.479c5.69,-7.962 10.595,-16.457 14.645,-25.365l-29.441,-22.036c2.626,-7.006 4.567,-14.25 5.795,-21.63l36.515,-4.363c0.947,-9.741 0.947,-19.55 0,-29.29l-36.515,-4.363c-1.228,-7.38 -3.169,-14.624 -5.795,-21.63l29.441,-22.036c-4.05,-8.909 -8.955,-17.404 -14.645,-25.366l-33.804,14.479c-4.754,-5.777 -10.057,-11.08 -15.835,-15.834l14.479,-33.804c-7.962,-5.69 -16.457,-10.595 -25.365,-14.645l-22.036,29.441c-7.006,-2.626 -14.25,-4.567 -21.63,-5.796l-4.363,-36.515Zm-14.645,69.937c44.582,0 80.777,36.195 80.777,80.777c-0,44.582 -36.195,80.776 -80.777,80.776c-44.582,0 -80.777,-36.194 -80.777,-80.776c0,-44.582 36.195,-80.777 80.777,-80.777Z" style="fill:#fff;"/><g><path d="M236.352,198.25l31.066,0l-4.943,79.544l-21.18,0l-4.943,-79.544Z" style="fill:#fff;"/><circle cx="251.885" cy="301.29" r="12.339" style="fill:#fff;"/></g></svg>