<?xml version="1.0" encoding="UTF-8" standalone="no"?><!DOCTYPE svg PUBLIC "-//W3C//DTD SVG 1.1//EN" "http://www.w3.org/Graphics/SVG/1.1/DTD/svg11.dtd"><svg width="100%" height="100%" viewBox="0 0 504 504" version="1.1" xmlns="http://www.w3.org/2000/svg" xmlns:xlink="http://www.w3.org/1999/xlink" xml:space="preserve" xmlns:serif="http://www.serif.com/" style="fill-rule:evenodd;clip-rule:evenodd;stroke-linecap:round;stroke-linejoin:round;stroke-miterlimit:1.5;"><rect x="1.885" y="1.885" width="500" height="500" style="fill:#d0011c;stroke:#fff;stroke-width:3.77px;"/><path d="M266.53,103.749c-9.74,-0.946 -19.55,-0.946 -29.29,-0l-4.363,36.515c-7.38,1.228 -14.624,3.169 -21.63,5.796l-22.036,-29.442c-8.909,4.051 -17.403,8.955 -25.366,14.645l14.479,33.805c-5.777,4.754 -11.08,10.057 -15.834,15.834l-33.804,-14.479c-5.69,7.962 -10.595,16.457 -14.645,25.365l29.441,22.036c-2.626,7.006 -4.567,14.25 -5.795,21.631l-36.515,4.363c-0.947,9.74 -0.947,19.549 -0,29.289l36.515,4.363c1.228,7.381 3.169,14.625 5.795,21.63l-29.441,22.036c4.05,8.909 8.955,17.404 14.645,25.366l33.804,-14.479c4.754,5.777 10.057,11.08 15.834,15.834l-14.479,33.805c7.963,5.689 16.457,10.594 25.366,14.644l22.036,-29.441c7.006,2.626 14.25,4.567 21.63,5.796l4.363,36.515c9.74,0.946 19.55,0.946 29.29,-0l4.363,-36.515c7.38,-1.229 14.624,-3.17 21.63,-5.796l22.036,29.441c8.908,-4.05 17.403,-8.955 25.365,-14.644l-14.479,-33.805c5.778,-4.754 11.081,-10.057 15.835,-15.834l33.804,14.479c5.69,-7.962 10.595,-16.457 14.645,-25.366l-29.441,-22.036c2.626,-7.005 4.567,-14.249 5.795,-21.63l36.515,-4.363c0.947,-9.74 0.947,-19.549 0,-29.289l-36.515,-4.363c-1.228,-7.381 -3.169,-14.625 -5.795,-21.631l29.441,-22.036c-4.05,-8.908 -8.955,-17.403 -14.645,-25.365l-33.804,14.479c-4.754,-5.777 -10.057,-11.08 -15.835,-15.834l14.479,-33.805c-7.962,-5.69 -16.457,-10.594 -25.365,-14.645l-22.036,29.442c-7.006,-2.627 -14.25,-4.568 -21.63,-5.796l-4.363,-36.515Zm-14.645,69.937c44.582,-0 80.777,36.195 80.777,80.776c-0,44.582 -36.195,80.777 -80.777,80.777c-44.582,0 -80.777,-36.195 -80.777,-80.777c0,-44.581 36.195,-80.776 80.777,-80.776Z" style="fill:#fff;"/><g><path d="M204.139,220.052c0,-0 -7.234,24.778 23.422,24.07c10.102,9.89 35.374,34.632 35.374,34.632c0,-0 -6.107,27.063 23.995,24.461c-3.461,-3.721 -8.58,-9.224 -8.58,-9.224c-3.793,-11.616 0.956,-15.442 11.95,-13.57l9.737,9.27c-0,-0 5.063,-26.762 -24.009,-24.476c-7.092,-7.651 -34.278,-34.991 -34.278,-34.991c-0,0 5.276,-24.32 -23.003,-25.096c3.846,4.601 9.39,11.235 9.39,11.235c0.192,10.09 -4.238,14.221 -12.926,12.861l-11.072,-9.172Z" style="fill:#fff;"/><path d="M241.614,278.848l-23.386,24.543c-10.619,1.655 -16.524,-1.503 -13.267,-14.013l24.183,-24.693l7.377,-0.635l30.551,-31.868l5.309,-15.804l19.812,-11.25l8.182,8.226l-10.897,19.226l-15.985,6.387l-30.531,31.69l-1.348,8.191Z" style="fill:#fff;"/></g></svg>