<?xml version="1.0" encoding="UTF-8" standalone="no"?>
<!DOCTYPE svg PUBLIC "-//W3C//DTD SVG 1.1//EN" "http://www.w3.org/Graphics/SVG/1.1/DTD/svg11.dtd">
<svg width="100%" height="100%" viewBox="0 0 70 70" version="1.1" xmlns="http://www.w3.org/2000/svg" xmlns:xlink="http://www.w3.org/1999/xlink" xml:space="preserve" xmlns:serif="http://www.serif.com/" style="fill-rule:evenodd;clip-rule:evenodd;stroke-linejoin:round;stroke-miterlimit:2;">
    <g transform="matrix(1,0,0,1,-486.825,-320)">
        <g transform="matrix(0.426534,0,0,0.403932,-2615.01,-199.204)">
            <rect x="7272.17" y="1285.37" width="163.605" height="172.76" style="fill:rgb(208,1,28);"/>
        </g>
        <g transform="matrix(0.404162,0,0,0.846207,-2331.29,-1285.76)">
            <g transform="matrix(0.383328,0,0,0.53077,4351.63,-54.2334)">
                <path d="M6977,3710.85C6977,3710.13 6975.32,3709.55 6973.25,3709.55L6922.19,3709.55C6920.12,3709.55 6918.44,3710.13 6918.44,3710.85L6918.44,3761.9C6918.44,3762.61 6920.12,3763.19 6922.19,3763.19L6973.25,3763.19C6975.32,3763.19 6977,3762.61 6977,3761.9L6977,3710.85ZM6969.49,3712.14L6969.49,3760.6C6969.49,3760.6 6925.95,3760.6 6925.95,3760.6C6925.95,3760.6 6925.95,3712.14 6925.95,3712.14L6969.49,3712.14Z" style="fill:white;"/>
            </g>
            <g transform="matrix(0.622217,-7.45813e-18,3.93814e-18,-0.090307,2691.42,2250.49)">
                <path d="M6973.25,3703.24C6974.52,3703.24 6975.56,3706.64 6975.56,3710.85L6975.56,3761.9C6975.56,3766.1 6974.52,3769.51 6973.25,3769.51L6922.19,3769.51C6920.92,3769.51 6919.88,3766.1 6919.88,3761.9L6919.88,3710.85C6919.88,3706.64 6920.92,3703.24 6922.19,3703.24L6973.25,3703.24ZM6970.93,3718.46L6924.51,3718.46C6924.51,3718.46 6924.51,3754.29 6924.51,3754.29C6924.51,3754.29 6970.93,3754.29 6970.93,3754.29L6970.93,3718.46Z" style="fill:white;"/>
            </g>
            <g transform="matrix(1.07913,0,0,3.97947,6683.49,-1608.71)">
                <g transform="matrix(1.07929,0,0,0.139787,-38.5085,-70.8792)">
                    <circle cx="359.111" cy="6890.86" r="47.301" style="fill:rgb(208,1,0);"/>
                </g>
                <g transform="matrix(1.07929,0,0,0.139787,-38.5085,-70.8792)">
                    <path d="M359.111,6842.32C332.323,6842.32 310.575,6864.07 310.575,6890.86C310.575,6917.64 332.323,6939.39 359.111,6939.39C385.899,6939.39 407.647,6917.64 407.647,6890.86C407.647,6864.07 385.899,6842.32 359.111,6842.32ZM359.111,6844.79C384.535,6844.79 405.176,6865.43 405.176,6890.86C405.176,6916.28 384.535,6936.92 359.111,6936.92C333.687,6936.92 313.045,6916.28 313.045,6890.86C313.045,6865.43 333.687,6844.79 359.111,6844.79Z" style="fill:white;"/>
                </g>
            </g>
            <g transform="matrix(0.610399,0,0,2.25094,6847.11,-66.2124)">
                <g transform="matrix(1.07929,0,0,0.139787,-38.5085,-70.8792)">
                    <circle cx="359.111" cy="6890.86" r="47.301" style="fill:rgb(208,1,0);"/>
                </g>
                <g transform="matrix(1.07929,0,0,0.139787,-38.5085,-70.8792)">
                    <path d="M359.111,6841.37C331.799,6841.37 309.626,6863.54 309.626,6890.86C309.626,6918.17 331.799,6940.34 359.111,6940.34C386.422,6940.34 408.595,6918.17 408.595,6890.86C408.595,6863.54 386.422,6841.37 359.111,6841.37ZM359.111,6845.74C384.011,6845.74 404.227,6865.95 404.227,6890.86C404.227,6915.76 384.011,6935.97 359.111,6935.97C334.21,6935.97 313.994,6915.76 313.994,6890.86C313.994,6865.95 334.21,6845.74 359.111,6845.74Z" style="fill:white;"/>
                </g>
            </g>
            <g transform="matrix(1.34602,0,0,0.653557,6583.41,-2559.86)">
                <path d="M359.592,6866.95C356.217,6866.18 352.711,6866.18 349.336,6866.95C350.036,6870.01 349.503,6872.85 347.738,6875.45C344.604,6875.21 342.056,6873.86 340.096,6871.4C337.389,6873.56 335.204,6876.3 333.702,6879.42C336.534,6880.78 338.418,6882.96 339.352,6885.97C337.208,6888.27 334.564,6889.41 331.42,6889.41C331.42,6892.88 332.2,6896.3 333.702,6899.41C336.534,6898.05 339.415,6897.94 342.345,6899.08C342.806,6902.19 342.056,6904.97 340.096,6907.43C342.803,6909.59 345.961,6911.11 349.336,6911.88C350.036,6908.82 351.745,6906.49 354.464,6904.92C357.183,6906.49 358.892,6908.82 359.592,6911.88C362.967,6911.11 366.125,6909.59 368.832,6907.43C366.872,6904.97 366.122,6902.19 366.583,6899.08C369.512,6897.94 372.393,6898.05 375.226,6899.41C376.728,6896.3 377.508,6892.88 377.508,6889.41C374.364,6889.41 371.72,6888.27 369.576,6885.97C370.51,6882.96 372.393,6880.78 375.226,6879.42C373.724,6876.3 371.538,6873.56 368.832,6871.4C366.872,6873.86 364.324,6875.21 361.19,6875.45C359.425,6872.85 358.892,6870.01 359.592,6866.95ZM354.464,6878.77C360.342,6878.77 365.114,6883.54 365.114,6889.41C365.114,6895.29 360.342,6900.07 354.464,6900.07C348.586,6900.07 343.813,6895.29 343.813,6889.41C343.813,6883.54 348.586,6878.77 354.464,6878.77Z" style="fill:white;"/>
            </g>
        </g>
    </g>
</svg>
