<?xml version="1.0" encoding="UTF-8" standalone="no"?><!DOCTYPE svg PUBLIC "-//W3C//DTD SVG 1.1//EN" "http://www.w3.org/Graphics/SVG/1.1/DTD/svg11.dtd"><svg width="100%" height="100%" viewBox="0 0 500 500" version="1.1" xmlns="http://www.w3.org/2000/svg" xmlns:xlink="http://www.w3.org/1999/xlink" xml:space="preserve" xmlns:serif="http://www.serif.com/" style="fill-rule:evenodd;clip-rule:evenodd;stroke-linecap:round;stroke-linejoin:round;stroke-miterlimit:1.5;"><rect x="0" y="-0" width="500" height="500" style="fill:#d0011c;"/><g><g><circle cx="250" cy="245.164" r="159.535" style="fill:#d00100;stroke:#fff;stroke-width:8.33px;"/><g><circle cx="252.314" cy="243.003" r="23.579" style="fill:#fff;"/><path d="M190.632,191.821c-0,-6.507 -5.283,-11.789 -11.79,-11.789l-23.578,-0c-6.507,-0 -11.79,5.282 -11.79,11.789l0,102.364c0,6.507 5.283,11.789 11.79,11.789l23.578,0c6.507,0 11.79,-5.282 11.79,-11.789l-0,-102.364Z" style="fill:#fff;"/><g><path d="M364.405,192.859c0.397,-6.214 -4.326,-11.582 -10.54,-11.979l-22.521,-1.44c-6.214,-0.397 -11.582,4.326 -11.979,10.54l-6.595,103.166c-0.397,6.215 4.326,11.583 10.54,11.98l22.52,1.44c6.215,0.397 11.583,-4.326 11.98,-10.541l6.595,-103.166Z" style="fill:#fff;"/><path d="M252.314,243.003l86.273,-0" style="fill:none;stroke:#fff;stroke-width:8.33px;"/></g><path d="M166.04,243.003l86.274,-0" style="fill:none;stroke:#fff;stroke-width:8.33px;"/></g></g></g></svg>